# xmcd
#
# Track frame offsets: 
#        150
#        21248
#        37264
#        52030
#        69496
#        86977
#        100802
#        120342
#        133923
#        151028
#        168799
#        188000
#
# Disc length: 2615 seconds
#
# Revision: 0
# Processed by: cddbd v1.5.2PL0 Copyright (c) Steve Scherf et al.
# Submitted via: ExactAudioCopyFreeDBPlugin 1.0
#
DISCID=9d0a350c
DTITLE=Kenny Rogers - Faith
DYEAR=2012
DGENRE=Country
TTITLE0=Will the Circle Be Unbroken
TTITLE1=Peace
TTITLE2=Kenny Rogers feat. The Whites - I'll Fly Away
TTITLE3=The Rock of Your Love
TTITLE4=Kenny Rogers feat. Winfield's Locket - In the Sweet By and By
TTITLE5=He Showed Me Love
TTITLE6=Grace
TTITLE7=What a Friend We Have in Jesus
TTITLE8=Kenny Rogers feat. Point of Grace - Circle of Friends
TTITLE9=For the Love of God
TTITLE10=Amazing Grace
TTITLE11=Leaning on the Everlasting Arms
EXTD=
EXTT0=
EXTT1=
EXTT2=
EXTT3=
EXTT4=
EXTT5=
EXTT6=
EXTT7=
EXTT8=
EXTT9=
EXTT10=
EXTT11=
PLAYORDER=
